<?xml version="1.0" encoding="utf-8"?>
<!-- Generator: Adobe Illustrator 22.1.0, SVG Export Plug-In . SVG Version: 6.00 Build 0)  -->
<svg version="1.1" id="livetype" xmlns="http://www.w3.org/2000/svg" xmlns:xlink="http://www.w3.org/1999/xlink" x="0px" y="0px"
	 viewBox="0 0 146 45" enable-background="new 0 0 146 45" xml:space="preserve">
<g>
	<g>
		<path fill="#14130F" d="M140.187,44H5.813c-2.956,0-5.375-2.419-5.375-5.375V6.375C0.438,3.419,2.857,1,5.813,1h134.374
			c2.956,0,5.375,2.419,5.375,5.375v32.25C145.562,41.581,143.143,44,140.187,44z"/>
	</g>
	<g>
		<g>
			<path fill="#A6A6A6" d="M140.187,1.86c2.49,0,4.515,2.026,4.515,4.515v32.25c0,2.49-2.025,4.515-4.515,4.515H5.813
				c-2.49,0-4.515-2.026-4.515-4.515V6.375c0-2.49,2.025-4.515,4.515-4.515H140.187 M140.187,1H5.813
				C2.857,1,0.438,3.419,0.438,6.375v32.25C0.438,41.581,2.857,44,5.813,44h134.374c2.956,0,5.375-2.419,5.375-5.375V6.375
				C145.562,3.419,143.143,1,140.187,1L140.187,1z"/>
		</g>
	</g>
	<path fill="#FFFFFF" d="M73.683,24.383c-2.529,0-4.589,1.922-4.589,4.572c0,2.632,2.061,4.572,4.589,4.572
		c2.528,0,4.589-1.94,4.589-4.572C78.273,26.305,76.212,24.383,73.683,24.383z M73.683,31.726c-1.385,0-2.581-1.143-2.581-2.771
		c0-1.645,1.195-2.771,2.581-2.771c1.385,0,2.58,1.126,2.58,2.771C76.264,30.583,75.069,31.726,73.683,31.726z M63.672,24.383
		c-2.529,0-4.589,1.922-4.589,4.572c0,2.632,2.061,4.572,4.589,4.572c2.528,0,4.589-1.94,4.589-4.572
		C68.261,26.305,66.2,24.383,63.672,24.383z M63.672,31.726c-1.386,0-2.581-1.143-2.581-2.771c0-1.645,1.195-2.771,2.581-2.771
		c1.385,0,2.58,1.126,2.58,2.771C66.252,30.583,65.057,31.726,63.672,31.726z M51.762,25.786v1.94h4.642
		c-0.139,1.091-0.502,1.888-1.057,2.442c-0.675,0.675-1.732,1.42-3.585,1.42c-2.858,0-5.092-2.303-5.092-5.161
		s2.234-5.161,5.092-5.161c1.541,0,2.667,0.606,3.498,1.385l1.368-1.368c-1.16-1.108-2.702-1.957-4.867-1.957
		c-3.914,0-7.205,3.187-7.205,7.101c0,3.914,3.291,7.101,7.205,7.101c2.113,0,3.706-0.693,4.953-1.992
		c1.282-1.282,1.68-3.083,1.68-4.537c0-0.45-0.035-0.866-0.104-1.212H51.762z M100.468,27.292c-0.381-1.022-1.541-2.909-3.914-2.909
		c-2.355,0-4.312,1.853-4.312,4.572c0,2.563,1.94,4.572,4.537,4.572c2.095,0,3.308-1.282,3.81-2.026l-1.559-1.039
		c-0.52,0.762-1.23,1.264-2.251,1.264c-1.022,0-1.749-0.468-2.217-1.385l6.114-2.528L100.468,27.292z M94.234,28.817
		c-0.052-1.767,1.368-2.667,2.39-2.667c0.797,0,1.472,0.398,1.697,0.97L94.234,28.817z M89.263,33.25h2.009V19.811h-2.009V33.25z
		 M85.972,25.405h-0.069c-0.45-0.537-1.316-1.022-2.407-1.022c-2.286,0-4.382,2.009-4.382,4.589c0,2.563,2.096,4.555,4.382,4.555
		c1.091,0,1.957-0.485,2.407-1.039h0.069v0.658c0,1.749-0.935,2.684-2.442,2.684c-1.229,0-1.992-0.883-2.303-1.628l-1.749,0.727
		c0.502,1.212,1.836,2.702,4.053,2.702c2.355,0,4.347-1.385,4.347-4.763V24.66h-1.905V25.405z M83.669,31.726
		c-1.385,0-2.546-1.16-2.546-2.754c0-1.611,1.16-2.788,2.546-2.788c1.368,0,2.442,1.178,2.442,2.788
		C86.111,30.566,85.037,31.726,83.669,31.726z M109.879,19.811h-4.807V33.25h2.006v-5.092h2.801c2.224,0,4.409-1.61,4.409-4.174
		S112.102,19.811,109.879,19.811z M109.93,26.288h-2.853v-4.607h2.853c1.5,0,2.351,1.242,2.351,2.303
		C112.282,25.026,111.43,26.288,109.93,26.288z M122.327,24.358c-1.452,0-2.957,0.64-3.579,2.057l1.781,0.743
		c0.38-0.743,1.089-0.986,1.833-0.986c1.037,0,2.092,0.622,2.109,1.729v0.138c-0.363-0.207-1.141-0.519-2.092-0.519
		c-1.919,0-3.873,1.055-3.873,3.026c0,1.798,1.573,2.956,3.337,2.956c1.349,0,2.092-0.605,2.559-1.314h0.069v1.037h1.936v-5.152
		C126.407,25.69,124.626,24.358,122.327,24.358z M122.085,31.723c-0.657,0-1.573-0.328-1.573-1.141c0-1.037,1.141-1.435,2.127-1.435
		c0.882,0,1.297,0.19,1.833,0.45C124.315,30.842,123.243,31.723,122.085,31.723z M133.461,24.652l-2.3,5.826h-0.069l-2.386-5.826
		h-2.161l3.579,8.143l-2.04,4.53h2.092l5.515-12.673H133.461z M115.394,33.25h2.006V19.811h-2.006V33.25z"/>
	<g>
		
			<linearGradient id="SVGID_1_" gradientUnits="userSpaceOnUse" x1="23.8724" y1="44.637" x2="5.8314" y2="26.596" gradientTransform="matrix(1 0 0 -1 0 55)">
			<stop  offset="0" style="stop-color:#4699D0"/>
			<stop  offset="0.0066" style="stop-color:#459AD1"/>
			<stop  offset="0.2601" style="stop-color:#1ABAEB"/>
			<stop  offset="0.5122" style="stop-color:#4EC3ED"/>
			<stop  offset="0.7604" style="stop-color:#6AC8E7"/>
			<stop  offset="1" style="stop-color:#72CAE5"/>
		</linearGradient>
		<path fill="url(#SVGID_1_)" d="M11.656,9.103c-0.313,0.331-0.498,0.845-0.498,1.51v23.775c0,0.666,0.185,1.179,0.498,1.51
			l0.08,0.078l13.318-13.318v-0.157v-0.157L11.735,9.025L11.656,9.103z"/>
		
			<linearGradient id="SVGID_2_" gradientUnits="userSpaceOnUse" x1="36.8095" y1="32.4984" x2="10.798" y2="32.4984" gradientTransform="matrix(1 0 0 -1 0 55)">
			<stop  offset="0" style="stop-color:#FFE103"/>
			<stop  offset="0.4087" style="stop-color:#FDBD00"/>
			<stop  offset="0.7754" style="stop-color:#F8A500"/>
			<stop  offset="1" style="stop-color:#F69B00"/>
		</linearGradient>
		<path fill="url(#SVGID_2_)" d="M29.492,27.099l-4.439-4.441v-0.157v-0.157l4.44-4.44l0.1,0.057l5.26,2.989
			c1.502,0.854,1.502,2.25,0,3.104l-5.26,2.989L29.492,27.099z"/>
		
			<linearGradient id="SVGID_3_" gradientUnits="userSpaceOnUse" x1="27.1266" y1="30.0317" x2="2.6616" y2="5.5667" gradientTransform="matrix(1 0 0 -1 0 55)">
			<stop  offset="0" style="stop-color:#E93A3D"/>
			<stop  offset="1" style="stop-color:#C41463"/>
		</linearGradient>
		<path fill="url(#SVGID_3_)" d="M29.594,27.042l-4.54-4.541L11.656,35.899c0.495,0.524,1.313,0.589,2.234,0.066L29.594,27.042"/>
		
			<linearGradient id="SVGID_4_" gradientUnits="userSpaceOnUse" x1="8.2823" y1="53.8105" x2="19.207" y2="42.8858" gradientTransform="matrix(1 0 0 -1 0 55)">
			<stop  offset="0" style="stop-color:#33A071"/>
			<stop  offset="0.0685" style="stop-color:#30A772"/>
			<stop  offset="0.4762" style="stop-color:#54B867"/>
			<stop  offset="0.8009" style="stop-color:#6BBE66"/>
			<stop  offset="1" style="stop-color:#72C066"/>
		</linearGradient>
		<path fill="url(#SVGID_4_)" d="M29.594,17.96L13.89,9.037c-0.921-0.523-1.739-0.458-2.234,0.066l13.398,13.398L29.594,17.96z"/>
		<g>
			<path opacity="0.2" fill="#000102" enable-background="new    " d="M29.494,26.942L13.89,35.808
				c-0.873,0.496-1.653,0.463-2.154,0.012l0,0l-0.08,0.08l0,0l0.08,0.078l0.001-0.001c0.501,0.451,1.281,0.485,2.154-0.012
				l15.704-8.923L29.494,26.942z"/>
			<path opacity="0.12" fill="#000102" enable-background="new    " d="M11.656,35.742c-0.313-0.331-0.498-0.845-0.498-1.51v0.157
				c0,0.666,0.185,1.179,0.498,1.51l0.08-0.08L11.656,35.742z"/>
		</g>
		<path opacity="0.12" fill="#000102" enable-background="new    " d="M34.853,23.896l-5.36,3.046l0.1,0.1l5.26-2.989
			c0.751-0.427,1.127-0.989,1.127-1.552l0,0C35.917,23.01,35.535,23.509,34.853,23.896z"/>
		<path opacity="0.25" fill="#FFFFFF" enable-background="new    " d="M13.89,9.195l20.964,11.911
			c0.681,0.387,1.064,0.886,1.127,1.395l0,0c0.001-0.562-0.375-1.125-1.127-1.552L13.89,9.038c-1.502-0.854-2.731-0.145-2.731,1.576
			v0.157C11.158,9.051,12.387,8.341,13.89,9.195z"/>
	</g>
	<g>
		<path fill="#FFFFFF" stroke="#FFFFFF" stroke-width="0.2" stroke-miterlimit="10" d="M44.876,14.975v-6.45h1.973
			c0.991,0,1.784,0.299,2.379,0.897c0.594,0.597,0.891,1.373,0.891,2.328c0,0.955-0.297,1.731-0.891,2.328
			c-0.595,0.598-1.388,0.897-2.379,0.897H44.876z M45.704,14.182h1.144c0.744,0,1.334-0.213,1.77-0.64
			c0.436-0.426,0.653-1.024,0.653-1.793c0-0.763-0.217-1.358-0.653-1.788c-0.436-0.429-1.026-0.644-1.77-0.644h-1.144V14.182z"/>
		<path fill="#FFFFFF" stroke="#FFFFFF" stroke-width="0.2" stroke-miterlimit="10" d="M51.282,14.975v-6.45h0.828v6.45H51.282z"/>
		<path fill="#FFFFFF" stroke="#FFFFFF" stroke-width="0.2" stroke-miterlimit="10" d="M55.406,15.119
			c-0.468,0-0.926-0.153-1.373-0.459c-0.448-0.306-0.741-0.736-0.879-1.289l0.757-0.306c0.09,0.354,0.274,0.653,0.553,0.896
			c0.28,0.243,0.593,0.365,0.942,0.365c0.36,0,0.669-0.094,0.924-0.283c0.255-0.189,0.382-0.446,0.382-0.771
			c0-0.36-0.127-0.638-0.382-0.833c-0.255-0.195-0.659-0.377-1.212-0.545c-0.571-0.18-1.004-0.413-1.298-0.698
			c-0.294-0.285-0.442-0.65-0.442-1.094c0-0.462,0.184-0.865,0.55-1.207c0.366-0.342,0.844-0.514,1.432-0.514
			c0.547,0,0.991,0.137,1.333,0.41c0.342,0.273,0.565,0.572,0.667,0.897l-0.756,0.315c-0.055-0.204-0.188-0.393-0.401-0.567
			c-0.213-0.174-0.488-0.261-0.825-0.261c-0.318,0-0.59,0.088-0.815,0.266c-0.226,0.177-0.338,0.398-0.338,0.662
			c0,0.24,0.104,0.443,0.311,0.608c0.208,0.165,0.512,0.314,0.914,0.446c0.318,0.102,0.584,0.201,0.798,0.298
			c0.213,0.096,0.429,0.224,0.648,0.383c0.219,0.159,0.384,0.357,0.495,0.595c0.111,0.237,0.167,0.512,0.167,0.824
			s-0.064,0.592-0.193,0.838c-0.129,0.247-0.301,0.441-0.514,0.586c-0.213,0.144-0.442,0.254-0.689,0.329
			C55.917,15.082,55.665,15.119,55.406,15.119z"/>
		<path fill="#FFFFFF" stroke="#FFFFFF" stroke-width="0.2" stroke-miterlimit="10" d="M59.577,14.975h-0.828v-6.45h2.198
			c0.546,0,1.019,0.182,1.418,0.545c0.4,0.363,0.599,0.822,0.599,1.374c0,0.552-0.199,1.01-0.599,1.373
			c-0.399,0.364-0.872,0.545-1.418,0.545h-1.37V14.975z M59.577,11.569h1.388c0.349,0,0.628-0.117,0.838-0.351
			c0.21-0.235,0.315-0.492,0.315-0.775s-0.105-0.541-0.315-0.775c-0.21-0.235-0.489-0.352-0.838-0.352h-1.388V11.569z"/>
		<path fill="#FFFFFF" stroke="#FFFFFF" stroke-width="0.2" stroke-miterlimit="10" d="M69.284,14.141
			c-0.634,0.652-1.423,0.977-2.365,0.977c-0.943,0-1.731-0.325-2.364-0.977c-0.634-0.651-0.95-1.449-0.95-2.391
			c0-0.943,0.316-1.74,0.95-2.391c0.633-0.652,1.421-0.978,2.364-0.978c0.937,0,1.724,0.328,2.361,0.982
			c0.636,0.655,0.954,1.45,0.954,2.387C70.234,12.693,69.917,13.49,69.284,14.141z M65.166,13.601
			c0.478,0.483,1.061,0.725,1.752,0.725c0.691,0,1.275-0.241,1.752-0.725c0.478-0.483,0.717-1.101,0.717-1.851
			c0-0.751-0.239-1.368-0.717-1.851c-0.477-0.483-1.061-0.725-1.752-0.725c-0.691,0-1.275,0.241-1.752,0.725
			c-0.477,0.483-0.716,1.101-0.716,1.851C64.45,12.501,64.69,13.118,65.166,13.601z"/>
		<path fill="#FFFFFF" stroke="#FFFFFF" stroke-width="0.2" stroke-miterlimit="10" d="M71.397,14.975v-6.45h1.009l3.135,5.018
			h0.036L75.54,12.3V8.525h0.829v6.45h-0.865l-3.28-5.261h-0.036l0.036,1.243v4.018H71.397z"/>
		<path fill="#FFFFFF" stroke="#FFFFFF" stroke-width="0.2" stroke-miterlimit="10" d="M77.847,14.975v-6.45h0.828v6.45H77.847z
			 M78.622,8.021H77.9l0.469-1.153h0.901L78.622,8.021z"/>
		<path fill="#FFFFFF" stroke="#FFFFFF" stroke-width="0.2" stroke-miterlimit="10" d="M81.747,14.975l-2.27-6.45h0.919l1.766,5.234
			h0.036l1.838-5.234h0.919l-2.342,6.45H81.747z"/>
		<path fill="#FFFFFF" stroke="#FFFFFF" stroke-width="0.2" stroke-miterlimit="10" d="M89.657,9.318H86.72v2.045h2.649v0.775H86.72
			v2.045h2.937v0.793h-3.766v-6.45h3.766V9.318z"/>
		<path fill="#FFFFFF" stroke="#FFFFFF" stroke-width="0.2" stroke-miterlimit="10" d="M90.955,14.975v-6.45h0.828v5.657h2.792
			v0.793H90.955z"/>
		<path fill="#FFFFFF" stroke="#FFFFFF" stroke-width="0.2" stroke-miterlimit="10" d="M97.782,14.975v-6.45h1.009l3.135,5.018
			h0.036l-0.036-1.243V8.525h0.829v6.45h-0.865l-3.28-5.261h-0.036l0.036,1.243v4.018H97.782z"/>
		<path fill="#FFFFFF" stroke="#FFFFFF" stroke-width="0.2" stroke-miterlimit="10" d="M109.506,14.141
			c-0.634,0.652-1.423,0.977-2.365,0.977c-0.943,0-1.731-0.325-2.364-0.977c-0.634-0.651-0.95-1.449-0.95-2.391
			c0-0.943,0.316-1.74,0.95-2.391c0.633-0.652,1.421-0.978,2.364-0.978c0.938,0,1.724,0.328,2.361,0.982
			c0.636,0.655,0.954,1.45,0.954,2.387C110.456,12.693,110.139,13.49,109.506,14.141z M105.388,13.601
			c0.478,0.483,1.061,0.725,1.752,0.725c0.691,0,1.275-0.241,1.752-0.725c0.478-0.483,0.717-1.101,0.717-1.851
			c0-0.751-0.239-1.368-0.717-1.851c-0.477-0.483-1.061-0.725-1.752-0.725c-0.691,0-1.275,0.241-1.752,0.725
			c-0.477,0.483-0.716,1.101-0.716,1.851C104.672,12.501,104.912,13.118,105.388,13.601z"/>
	</g>
</g>
</svg>
