<?xml version="1.0" encoding="utf-8"?>
<!-- Generator: Adobe Illustrator 22.1.0, SVG Export Plug-In . SVG Version: 6.00 Build 0)  -->
<svg version="1.1" id="livetype" xmlns="http://www.w3.org/2000/svg" xmlns:xlink="http://www.w3.org/1999/xlink" x="0px" y="0px"
	 viewBox="0 0 146 45" enable-background="new 0 0 146 45" xml:space="preserve">
<g>
	<g>
		<g>
			<g>
				<path fill="#B7B7B7" d="M135.357,1H10.648c-0.394,0-0.784,0-1.177,0.002C9.142,1.004,8.816,1.01,8.484,1.016
					c-0.715,0.018-1.44,0.062-2.154,0.19C5.61,1.332,4.941,1.547,4.286,1.88c-0.644,0.33-1.231,0.758-1.74,1.267
					C2.032,3.656,1.605,4.246,1.279,4.89C0.945,5.544,0.733,6.215,0.608,6.936c-0.13,0.712-0.174,1.432-0.193,2.152
					c-0.01,0.33-0.011,0.66-0.016,0.99c0,0.389,0,0.78,0,1.174V33.75c0,0.397,0,0.785,0,1.176c0.005,0.334,0.006,0.657,0.016,0.991
					c0.018,0.72,0.063,1.44,0.193,2.152c0.125,0.72,0.338,1.395,0.672,2.047c0.326,0.64,0.752,1.23,1.267,1.735
					c0.509,0.513,1.097,0.941,1.74,1.267c0.655,0.336,1.324,0.548,2.043,0.678c0.714,0.128,1.439,0.17,2.154,0.19
					c0.332,0.007,0.659,0.012,0.988,0.012C9.865,44,10.254,44,10.648,44h124.709c0.386,0,0.779,0,1.165-0.002
					c0.328,0,0.663-0.004,0.991-0.012c0.72-0.02,1.442-0.062,2.15-0.19c0.72-0.13,1.39-0.342,2.051-0.678
					c0.642-0.326,1.23-0.754,1.738-1.267c0.512-0.505,0.938-1.095,1.27-1.735c0.33-0.652,0.544-1.327,0.666-2.047
					c0.132-0.712,0.174-1.432,0.2-2.152c0.004-0.334,0.004-0.657,0.004-0.991c0.008-0.391,0.008-0.779,0.008-1.176V11.251
					c0-0.394,0-0.784-0.008-1.174c0-0.33,0-0.66-0.004-0.99c-0.025-0.72-0.067-1.44-0.2-2.152c-0.122-0.72-0.336-1.392-0.666-2.046
					c-0.332-0.644-0.758-1.234-1.27-1.743c-0.508-0.509-1.096-0.937-1.738-1.267c-0.661-0.333-1.331-0.548-2.051-0.674
					c-0.708-0.128-1.43-0.172-2.15-0.19c-0.328-0.005-0.663-0.012-0.991-0.014C136.136,1,135.744,1,135.357,1L135.357,1z"/>
				<path fill="#000001" d="M9.477,43.059c-0.328,0-0.647-0.004-0.972-0.012c-0.601-0.017-1.314-0.05-2.009-0.175
					c-0.656-0.119-1.239-0.312-1.781-0.589c-0.561-0.284-1.065-0.652-1.502-1.093c-0.445-0.437-0.811-0.938-1.097-1.501
					c-0.279-0.543-0.469-1.125-0.584-1.781c-0.131-0.723-0.165-1.457-0.179-2.016c-0.007-0.227-0.016-0.982-0.016-0.982V10.078
					c0,0,0.009-0.743,0.016-0.962C1.367,8.553,1.401,7.82,1.531,7.104c0.115-0.66,0.305-1.242,0.584-1.787
					c0.286-0.564,0.652-1.068,1.091-1.503C3.651,3.369,4.157,3,4.714,2.715c0.552-0.28,1.134-0.472,1.777-0.585
					C7.215,2,7.949,1.968,8.507,1.954l0.97-0.013h127.04l0.982,0.014c0.551,0.014,1.285,0.046,1.998,0.175
					c0.648,0.113,1.234,0.306,1.796,0.589c0.551,0.282,1.056,0.651,1.496,1.092c0.44,0.437,0.808,0.944,1.1,1.51
					c0.277,0.55,0.466,1.132,0.575,1.773c0.125,0.678,0.164,1.375,0.187,2.029c0.003,0.304,0.003,0.631,0.003,0.957
					c0.008,0.403,0.008,0.787,0.008,1.174V33.75c0,0.391,0,0.772-0.008,1.156c0,0.35,0,0.67-0.004,0.999
					c-0.022,0.633-0.061,1.329-0.184,1.993c-0.111,0.659-0.3,1.242-0.58,1.795c-0.29,0.558-0.658,1.063-1.092,1.49
					c-0.444,0.449-0.948,0.816-1.504,1.099c-0.557,0.283-1.126,0.471-1.793,0.591c-0.689,0.125-1.401,0.158-2.009,0.175
					c-0.315,0.007-0.645,0.012-0.965,0.012l-1.165,0.002L9.477,43.059z"/>
			</g>
		</g>
		<g id="XMLID_20_">
			<g id="XMLID_22_">
				<g id="XMLID_23_">
					<path id="XMLID_25_" fill="#FFFFFF" d="M27.025,22.823c-0.027-2.957,2.421-4.396,2.533-4.463
						c-1.386-2.022-3.536-2.298-4.29-2.32c-1.805-0.189-3.555,1.08-4.475,1.08c-0.938,0-2.354-1.061-3.879-1.03
						c-1.963,0.03-3.801,1.167-4.808,2.932c-2.079,3.6-0.528,8.89,1.463,11.799c0.996,1.425,2.161,3.016,3.685,2.96
						c1.491-0.062,2.048-0.951,3.848-0.951c1.783,0,2.306,0.951,3.86,0.915c1.6-0.026,2.608-1.431,3.57-2.869
						c1.151-1.634,1.614-3.242,1.632-3.324C30.126,27.54,27.056,26.369,27.025,22.823z"/>
					<path id="XMLID_24_" fill="#FFFFFF" d="M24.089,14.127c0.802-1.003,1.35-2.367,1.198-3.752
						c-1.161,0.051-2.613,0.802-3.448,1.784c-0.739,0.864-1.4,2.282-1.229,3.613C21.913,15.869,23.252,15.114,24.089,14.127z"/>
				</g>
			</g>
			<g>
				<path fill="#FFFFFF" d="M45.874,30.175h-5.088l-1.222,3.608h-2.155l4.82-13.349h2.239l4.82,13.349h-2.192L45.874,30.175z
					 M41.312,28.51h4.033l-1.988-5.856h-0.056L41.312,28.51z"/>
				<path fill="#FFFFFF" d="M59.695,28.917c0,3.024-1.619,4.968-4.062,4.968c-1.387,0-2.488-0.62-3.062-1.703h-0.046v4.821h-1.998
					V24.051h1.934v1.619h0.037c0.555-1.045,1.74-1.721,3.099-1.721C58.067,23.949,59.695,25.901,59.695,28.917z M57.642,28.917
					c0-1.97-1.018-3.266-2.572-3.266c-1.526,0-2.553,1.323-2.553,3.266c0,1.961,1.027,3.274,2.553,3.274
					C56.624,32.192,57.642,30.906,57.642,28.917z"/>
				<path fill="#FFFFFF" d="M70.407,28.917c0,3.024-1.619,4.968-4.062,4.968c-1.387,0-2.488-0.62-3.062-1.703h-0.046v4.821H61.24
					V24.051h1.934v1.619h0.037c0.555-1.045,1.74-1.721,3.099-1.721C68.779,23.949,70.407,25.901,70.407,28.917z M68.354,28.917
					c0-1.97-1.018-3.266-2.572-3.266c-1.526,0-2.553,1.323-2.553,3.266c0,1.961,1.027,3.274,2.553,3.274
					C67.336,32.192,68.354,30.906,68.354,28.917z"/>
				<path fill="#FFFFFF" d="M77.487,30.064c0.148,1.324,1.434,2.193,3.191,2.193c1.684,0,2.895-0.869,2.895-2.063
					c0-1.036-0.731-1.657-2.461-2.082l-1.73-0.417c-2.451-0.592-3.589-1.738-3.589-3.599c0-2.303,2.007-3.885,4.857-3.885
					c2.821,0,4.755,1.582,4.82,3.885h-2.017c-0.121-1.332-1.222-2.136-2.831-2.136s-2.711,0.814-2.711,1.998
					c0,0.944,0.703,1.499,2.424,1.924l1.471,0.361c2.739,0.648,3.877,1.748,3.877,3.701c0,2.497-1.989,4.062-5.153,4.062
					c-2.96,0-4.959-1.527-5.088-3.942H77.487z"/>
				<path fill="#FFFFFF" d="M89.996,21.747v2.303h1.851v1.582h-1.851v5.366c0,0.834,0.371,1.222,1.184,1.222
					c0.204,0,0.528-0.028,0.657-0.046v1.573c-0.222,0.056-0.666,0.092-1.11,0.092c-1.97,0-2.739-0.74-2.739-2.628v-5.579h-1.415
					v-1.582h1.415v-2.303H89.996z"/>
				<path fill="#FFFFFF" d="M92.918,28.917c0-3.062,1.804-4.987,4.616-4.987c2.822,0,4.617,1.924,4.617,4.987
					c0,3.071-1.786,4.987-4.617,4.987C94.704,33.904,92.918,31.988,92.918,28.917z M100.116,28.917c0-2.101-0.963-3.34-2.581-3.34
					s-2.58,1.249-2.58,3.34c0,2.109,0.962,3.339,2.58,3.339S100.116,31.027,100.116,28.917z"/>
				<path fill="#FFFFFF" d="M103.799,24.051h1.905v1.657h0.046c0.305-1.101,1.194-1.758,2.341-1.758
					c0.287,0,0.527,0.038,0.684,0.075v1.869c-0.157-0.065-0.509-0.121-0.898-0.121c-1.286,0-2.082,0.87-2.082,2.239v5.773h-1.998
					V24.051z"/>
				<path fill="#FFFFFF" d="M117.987,30.925c-0.269,1.767-1.989,2.979-4.191,2.979c-2.831,0-4.589-1.897-4.589-4.94
					c0-3.053,1.767-5.033,4.505-5.033c2.693,0,4.386,1.85,4.386,4.801v0.684h-6.874v0.121c0,1.665,1.046,2.757,2.618,2.757
					c1.11,0,1.98-0.527,2.248-1.369H117.987z M111.233,28.02h4.866c-0.046-1.49-0.999-2.47-2.387-2.47
					C112.334,25.55,111.335,26.549,111.233,28.02z"/>
			</g>
		</g>
	</g>
	<g id="XMLID_1_">
		<g>
			<path fill="#FFFFFF" d="M38.745,16.8v-6.414h2.578c1.205,0,1.93,0.613,1.93,1.6c0,0.671-0.493,1.271-1.124,1.378v0.076
				c0.866,0.089,1.445,0.707,1.445,1.542c0,1.129-0.822,1.818-2.192,1.818H38.745z M39.741,13.102h1.182
				c0.881,0,1.339-0.324,1.339-0.933c0-0.592-0.431-0.938-1.169-0.938h-1.351V13.102z M41.181,15.956
				c0.898,0,1.373-0.365,1.373-1.045c0-0.671-0.493-1.023-1.431-1.023h-1.383v2.067H41.181z"/>
			<path fill="#FFFFFF" d="M44.596,15.431c0-0.871,0.649-1.374,1.8-1.445l1.311-0.076v-0.418c0-0.511-0.338-0.8-0.991-0.8
				c-0.533,0-0.903,0.196-1.009,0.538h-0.925c0.098-0.831,0.88-1.365,1.978-1.365c1.214,0,1.898,0.604,1.898,1.627V16.8h-0.92v-0.68
				h-0.076c-0.289,0.484-0.818,0.76-1.454,0.76C45.277,16.88,44.596,16.316,44.596,15.431z M47.708,15.018v-0.405l-1.182,0.076
				c-0.667,0.045-0.969,0.271-0.969,0.698c0,0.436,0.378,0.689,0.898,0.689C47.175,16.076,47.708,15.617,47.708,15.018z"/>
			<path fill="#FFFFFF" d="M50.03,10.528c0-0.334,0.262-0.587,0.618-0.587c0.355,0,0.617,0.253,0.617,0.587
				c0,0.329-0.262,0.582-0.617,0.582C50.293,11.11,50.03,10.857,50.03,10.528z M50.172,11.959h0.952V16.8h-0.952V11.959z"/>
			<path fill="#FFFFFF" d="M54.403,15.084L53.344,16.8h-1.049l1.605-2.409l-1.619-2.431h1.116l1.04,1.707h0.076l1.031-1.707h1.062
				l-1.596,2.391l1.614,2.449h-1.097l-1.054-1.716H54.403z"/>
			<path fill="#FFFFFF" d="M57.468,15.431c0-0.871,0.649-1.374,1.8-1.445l1.311-0.076v-0.418c0-0.511-0.338-0.8-0.991-0.8
				c-0.533,0-0.903,0.196-1.009,0.538h-0.925c0.098-0.831,0.88-1.365,1.978-1.365c1.214,0,1.898,0.604,1.898,1.627V16.8h-0.92v-0.68
				h-0.076c-0.289,0.484-0.818,0.76-1.454,0.76C58.148,16.88,57.468,16.316,57.468,15.431z M60.58,15.018v-0.405l-1.182,0.076
				c-0.667,0.045-0.969,0.271-0.969,0.698c0,0.436,0.378,0.689,0.898,0.689C60.046,16.076,60.58,15.617,60.58,15.018z"/>
			<path fill="#FFFFFF" d="M63.027,11.959h0.92v0.742h0.071c0.138-0.476,0.675-0.823,1.307-0.823c0.142,0,0.324,0.013,0.426,0.04
				v0.943c-0.08-0.027-0.364-0.058-0.533-0.058c-0.724,0-1.236,0.458-1.236,1.138V16.8h-0.955V11.959z"/>
			<path fill="#FFFFFF" d="M69.433,11.959h0.92v0.769h0.071c0.235-0.538,0.716-0.862,1.445-0.862c1.08,0,1.675,0.649,1.675,1.8V16.8
				h-0.955v-2.894c0-0.778-0.338-1.165-1.045-1.165s-1.156,0.471-1.156,1.227V16.8h-0.956V11.959z"/>
			<path fill="#FFFFFF" d="M74.746,15.431c0-0.871,0.649-1.374,1.8-1.445l1.311-0.076v-0.418c0-0.511-0.338-0.8-0.991-0.8
				c-0.533,0-0.903,0.196-1.009,0.538h-0.925c0.098-0.831,0.88-1.365,1.978-1.365c1.214,0,1.898,0.604,1.898,1.627V16.8h-0.92v-0.68
				h-0.076c-0.289,0.484-0.818,0.76-1.454,0.76C75.427,16.88,74.746,16.316,74.746,15.431z M77.858,15.018v-0.405l-1.182,0.076
				c-0.667,0.045-0.969,0.271-0.969,0.698c0,0.436,0.378,0.689,0.898,0.689C77.325,16.076,77.858,15.617,77.858,15.018z"/>
		</g>
	</g>
</g>
</svg>
